<svg x="0px" y="0px" width="48px" height="48px" viewBox="-216.102 501.898 48 48">
		<path
			d="M-169.184,524.866c-0.095-0.122-2.396-3.007-6.339-5.904c-5.269-3.871-11.002-5.917-16.58-5.917
			c-5.577,0-11.311,2.046-16.58,5.917c-3.943,2.897-6.243,5.782-6.339,5.904l-0.815,1.03l0.815,1.031
			c0.096,0.122,2.396,3.007,6.339,5.904c5.269,3.871,11.002,5.917,16.58,5.917c5.577,0,11.311-2.046,16.58-5.917
			c3.943-2.897,6.244-5.782,6.339-5.904l0.816-1.031L-169.184,524.866z M-192.103,534.901c-4.964,0-9.003-4.038-9.003-9.004
			c0-0.777,0.1-1.532,0.286-2.253l-2.056-0.347c-0.202,0.835-0.308,1.705-0.308,2.6c0,3.207,1.37,6.101,3.555,8.126
			c-2.812-1.039-5.204-2.497-7.008-3.815c-2.236-1.634-3.912-3.284-4.867-4.311c0.956-1.025,2.631-2.676,4.867-4.31
			c1.805-1.319,4.196-2.776,7.008-3.815l1.378,1.555c1.611-1.508,3.773-2.433,6.148-2.433c4.965,0,9.004,4.038,9.004,9.003
			C-183.099,530.863-187.138,534.901-192.103,534.901z M-177.567,530.207c-1.805,1.318-4.196,2.776-7.008,3.815
			c2.185-2.025,3.555-4.919,3.555-8.126s-1.37-6.1-3.555-8.125c2.812,1.039,5.203,2.496,7.008,3.815
			c2.236,1.634,3.912,3.284,4.867,4.31C-173.656,526.923-175.331,528.574-177.567,530.207z"/>
		<path
			d="M-197.832,524.147c-0.169,0.554-0.261,1.142-0.261,1.751c0,3.308,2.682,5.989,5.99,5.989c3.309,0,5.99-2.682,5.99-5.989
			c0-3.309-2.682-5.989-5.99-5.989c-1.611,0-3.073,0.636-4.149,1.671l2.954,3.331L-197.832,524.147z"/>
</svg>
